<svg id="Layer_1" data-name="Layer 1" xmlns="http://www.w3.org/2000/svg" xmlns:xlink="http://www.w3.org/1999/xlink" viewBox="0 0 250 250">
  <defs>
    <style>
      .cls-1 {
        fill-rule: evenodd;
        stroke: url(#linear-gradient-2);
      }

      .cls-1, .cls-2, .cls-3 {
        fill: none;
        stroke-miterlimit: 10;
      }

      .cls-2 {
        stroke: aqua;
        stroke-width: 10px;
      }

      .cls-3 {
        stroke: url(#linear-gradient);
      }
    </style>
    <linearGradient id="linear-gradient-2" x1="40.97" y1="129.64" x2="216.6" y2="129.64" gradientUnits="userSpaceOnUse">
      <stop offset="0" stop-color="#00a8dc"/>
      <stop offset="1" stop-color="#00619a"/>
    </linearGradient>
    <linearGradient id="linear-gradient" x1="-1887.81" y1="3015.46" x2="176.58" y2="3015.46" xlink:href="#linear-gradient"/>
  </defs>
  <path class="cls-3" d="m216.1,232.52c0-6.55-.9-12.92-2.78-18.93-1.88-6.1-4.58-11.67-8.08-16.78-3.5-5.12-7.81-9.6-12.83-13.46s-10.68-6.91-16.96-9.06c3.5-1.97,6.73-4.31,9.51-7.09s5.2-5.83,7.27-9.24c1.97-3.32,3.5-6.91,4.58-10.77,1.08-3.77,1.62-7.72,1.62-11.76,0-6.1-1.17-11.84-3.41-17.23-2.33-5.38-5.47-10.05-9.42-14-4.04-4.04-8.7-7.18-14-9.42-5.38-2.33-11.13-3.41-17.23-3.41s-11.84,1.17-17.23,3.41c-5.38,2.33-10.05,5.47-14,9.42-4.04,4.04-7.18,8.7-9.42,14-2.33,5.38-3.41,11.13-3.41,17.23,0,4.04.54,7.99,1.62,11.84,1.08,3.86,2.6,7.45,4.58,10.86,1.97,3.41,4.4,6.46,7.27,9.24,2.87,2.78,6.1,5.12,9.69,7-6.19,2.24-11.84,5.29-16.87,9.15-5.03,3.86-9.33,8.35-12.83,13.37s-6.28,10.59-8.17,16.6c-1.97,6.1-2.96,12.38-2.96,19.02m29.65-175.02s.05-.14.05-.18v-27.05c0-.65-.14-1.3-.55-1.85-.6-.83-1.48-1.16-2.49-1.16H44.33c-.65.05-1.25.18-1.76.6-.83.6-1.11,1.48-1.11,2.5v27.97c0,.09,0,.23.05.32v23.06c0,.23,0,.46.05.69.28,1.3,1.34,2.22,2.68,2.22h37.72c.23,0,.46.05.65.23.69.56,1.43,1.11,2.12,1.67,2.72,2.08,5.45,4.17,8.17,6.25.83.65,1.66,1.3,2.54,1.9.6.42,1.43.19,1.8-.46.14-.28.19-.6.19-.93v-7.97c0-.56.23-.79.78-.83h20.92c.37,0,.69,0,1.06-.09.78-.19,1.43-.6,1.85-1.3.28-.51.42-1.06.42-1.62v-23.66c-.18-.14-.18-.23-.18-.32Zm-51.12-12.91,0,0c0-1.53.27-2.96.82-4.28.55-1.32,1.31-2.46,2.28-3.43.97-.97,2.12-1.73,3.43-2.28,1.32-.55,2.74-.82,4.28-.82s2.96.28,4.28.82c1.32.55,2.46,1.31,3.43,2.28.97.97,1.73,2.12,2.28,3.43.55,1.32.82,2.74.82,4.28v8.11h5.41v24.34h-32.45v-24.34h27.04"/>
  <rect class="cls-2" x="-544.61" y="-3941.35" width="926.61" height="11958.26"/>
  <path class="cls-1" d="m-1673.82,2733.74h-194.93c-10.21,0-18.56,8.35-18.56,18.56v194.93c0,10.21,8.35,18.56,18.56,18.56h194.93c10.21,0,18.56-8.35,18.56-18.56v-194.93c0-10.21-8.35-18.56-18.56-18.56h0Zm-111.06,158.88c0,.25,0,.5.02.75.01.25.02.5.02.75s0,.5-.02.75c-.01.25-.02.5-.02.75l10.72,6.67-6.58,15.86-12.3-2.82c-.66.72-1.35,1.41-2.07,2.07l2.82,12.3-15.86,6.58-6.67-10.72c-.25,0-.5,0-.75.02s-.5.02-.75.02-.5,0-.75-.02-.5-.02-.75-.02l-6.67,10.72-15.86-6.58,2.82-12.3c-.72-.66-1.41-1.35-2.07-2.07l-12.3,2.82-6.58-15.86,10.72-6.67c0-.25,0-.5-.02-.75s-.02-.5-.02-.75,0-.5.02-.75.02-.5.02-.75l-10.72-6.67,6.58-15.86,12.3,2.82c.66-.72,1.35-1.41,2.07-2.07l-2.82-12.3,15.86-6.58,6.67,10.72c.25,0,.5,0,.75-.02.25-.01.5-.02.75-.02s.5,0,.75.02c.25.01.5.02.75.02l6.67-10.72,15.86,6.58-2.82,12.3c.72.66,1.41,1.35,2.07,2.07l12.3-2.82,6.58,15.86-10.72,6.67Zm-.51-114.42v7.89s-3.29,6.02-33.77,6.02-33.71-6.02-33.71-6.02v-7.63m67.47,20.87v7.43s-3.29,6.02-33.77,6.02-33.71-6.02-33.71-6.02v-7.17m67.47,20.09v7.75s-3.29,6.02-33.77,6.02-33.71-6.02-33.71-6.02v-6.96m1.65-55.19c0,3.56,14.38,6.45,32.12,6.45s32.06-2.89,32.06-6.45M-131,168h0m0,0h0m0,0h0m0,0h0m0,0h0m0,0h0m0,0h0m0,0h0m0,0h0m0,0h0m0,0h0m-1641.31,6672.15M-131,168h0M111.41-806.91c-4.34,1.21-8.41,2.93-12.2,5.14-3.79,2.21-7.24,4.87-10.35,7.98-3.11,3.11-5.77,6.56-7.98,10.35-2.21,3.79-3.93,7.87-5.14,12.22-1.22,4.36-1.82,8.88-1.82,13.57s.61,9.25,1.82,13.59c1.21,4.34,2.93,8.41,5.14,12.2,2.21,3.79,4.87,7.24,7.98,10.35,3.11,3.11,6.56,5.77,10.35,7.98,3.79,2.21,7.86,3.93,12.22,5.14,4.36,1.21,8.88,1.82,13.57,1.82s9.21-.61,13.57-1.82c4.36-1.21,8.43-2.93,12.22-5.14,3.79-2.21,7.24-4.87,10.35-7.98,3.11-3.11,5.77-6.56,7.98-10.35,2.21-3.79,3.92-7.86,5.14-12.22,1.21-4.36,1.82-8.88,1.82-13.57s-.61-9.21-1.82-13.57c-1.22-4.36-2.93-8.43-5.14-12.22-2.21-3.79-4.87-7.24-7.98-10.35-3.11-3.11-6.56-5.77-10.35-7.98-3.79-2.21-7.86-3.92-12.22-5.14-4.36-1.21-8.88-1.82-13.57-1.82s-9.25.61-13.59,1.82Zm42.08,71.84c-1.36-2.69-3.04-5.14-5.04-7.33-2-2.2-4.22-4.06-6.69-5.59-2.46-1.53-5.1-2.71-7.93-3.54-2.83-.83-5.77-1.25-8.83-1.25s-5.96.42-8.81,1.25c-2.84.83-5.49,2.01-7.96,3.54-2.46,1.53-4.69,3.39-6.68,5.59-2,2.2-3.68,4.64-5.04,7.33M-131,168h0M108.34-764.53c.76-.33,1.44-.79,2.02-1.37.58-.58,1.04-1.25,1.37-2.02.33-.76.5-1.6.5-2.49s-.17-1.73-.5-2.49c-.33-.76-.79-1.44-1.37-2.02-.58-.58-1.26-1.04-2.02-1.37-.77-.33-1.6-.5-2.49-.5s-1.73.17-2.49.5c-.77.33-1.44.79-2.02,1.37-.58.58-1.04,1.26-1.37,2.02-.33.77-.5,1.6-.5,2.49s.17,1.73.5,2.49c.33.77.79,1.44,1.37,2.02.58.58,1.25,1.04,2.02,1.37.76.33,1.6.5,2.49.5s1.73-.17,2.49-.5Zm38.31,0c.77-.33,1.44-.79,2.02-1.37.58-.58,1.04-1.25,1.37-2.02.33-.76.5-1.6.5-2.49s-.17-1.73-.5-2.49c-.33-.76-.79-1.44-1.37-2.02-.58-.58-1.25-1.04-2.02-1.37-.76-.33-1.59-.5-2.49-.5s-1.73.17-2.49.5c-.77.33-1.44.79-2.02,1.37-.58.58-1.04,1.26-1.37,2.02-.33.77-.5,1.6-.5,2.49s.17,1.73.5,2.49c.33.77.79,1.44,1.37,2.02.58.58,1.25,1.04,2.02,1.37.76.33,1.6.5,2.49.5s1.73-.17,2.49-.5Zm-44.56,29.46M-131,168h0m0,0h0m0,0h0m0,0h0m-25.8-344.46h10.33m-78.23,22.35h7.37m-6.52,44.7h10.33m22.35,0h11.18m-11.18-22.35h11.18m100.18-5.51l.4-106.25m-178.82,12.02v118.29m12.02,26.16h116.76m12.67-167.64h-7.33v11.18h-89.41v-11.18h-11.18v11.18h-7.72m74.77,134.11h11.18m87.74,2.4c-.79-2.82-1.89-5.45-3.32-7.9-1.43-2.45-3.15-4.68-5.16-6.69-2.01-2.01-4.24-3.73-6.69-5.16s-5.09-2.54-7.9-3.32c-2.82-.78-5.74-1.18-8.78-1.18s-5.96.39-8.77,1.18-5.45,1.89-7.9,3.32-4.68,3.15-6.69,5.16c-2.01,2.01-3.73,4.24-5.16,6.69-1.43,2.45-2.54,5.09-3.32,7.9-.79,2.82-1.18,5.74-1.18,8.78s.39,5.96,1.18,8.78c.78,2.82,1.89,5.45,3.32,7.9,1.43,2.45,3.15,4.68,5.16,6.69,2.01,2.01,4.24,3.73,6.69,5.16s5.08,2.54,7.89,3.32,5.74,1.18,8.79,1.18,5.96-.39,8.78-1.18c2.82-.78,5.45-1.89,7.9-3.32s4.68-3.15,6.69-5.16c2.01-2.01,3.73-4.24,5.16-6.69,1.43-2.45,2.54-5.08,3.32-7.89.78-2.81,1.18-5.74,1.18-8.79s-.39-5.96-1.18-8.78Zm-18.37-7.31l.44.44c-.08.16-.04.28-.12.4l-2.69,4.46-1.49,1.24c-.08.08-.28.08-.36,0l-.16-.16-8,8.15,9.36,9.68,2.09,2.17c.6.64.92,1.53.92,2.41.04.88-.32,1.77-.92,2.45-.04.04-.08.08-.16.16-1.29,1.2-3.3,1.12-4.5-.16l-10.49-11s-.12.08-.16.16c-.76.76-1.12,1.81-1,2.89l-8.48,8.79c-.24.24-.6.24-.8,0l-4.18-4.38c-.2-.2-.2-.56,0-.76l8.56-8.79c1.05.12,2.09-.24,2.77-1,.08-.08.12-.16.2-.24l-1.69-1.77-.72-.8-.12-.12c-2.45.72-5.06,0-6.83-1.81-1.65-1.73-2.37-4.1-1.93-6.42.04-.24.32-.32.48-.16l3.42,3.53c.08.08.2.08.28.08l3.58-1c.08,0,.16-.08.2-.2l.92-3.65c0-.08,0-.2-.08-.28l-3.5-3.57c-.16-.16-.08-.44.16-.48,2.29-.44,4.62.32,6.23,2.01,1.89,1.97,2.57,4.78,1.77,7.35l.68.72,2.69,2.77,7.96-8.19-.16-.16c-.08-.08-.12-.24,0-.36l1.21-1.57,4.26-2.85c.12-.08.28-.08.36.04Zm-43.21-17.45h7.37m-11.18-44.7h11.18m-11.18,22.35h11.18m-153.9-106.77L-128.45-122.48m-139.24,37.82l88.53-88.53,86.85-86.85M-178.51,114.33h-5.98m-17.95,11.97h5.98m11.97,11.97h5.98m17.95-23.94h-5.98m-17.95-11.97h5.98m35.91,18.02v-21.11m-41.89,27.02h5.98m5.33,23.94h-65.18v-83.78h17.95v-5.98h5.98v5.98h47.88v-5.98h5.98v5.98h5.17m-47.06,35.91h5.98m29.92,23.94h5.98m19.83,8.66l.26.25c-.05.09-.02.16-.07.23l-1.56,2.57-.86.72s-.16.05-.21,0l-.09-.09-4.62,4.71,5.41,5.59,1.21,1.25c.35.37.53.88.53,1.39.02.51-.19,1.02-.53,1.41-.02.02-.05.05-.09.09-.74.7-1.9.65-2.6-.09l-6.06-6.36s-.07.05-.09.09c-.44.44-.65,1.04-.58,1.67l-4.9,5.08c-.14.14-.35.14-.46,0l-2.41-2.53c-.12-.12-.12-.32,0-.44l4.95-5.08c.6.07,1.21-.14,1.6-.58.05-.05.07-.09.12-.14l-.97-1.02-.42-.46-.07-.07c-1.42.42-2.93,0-3.95-1.04-.95-1-1.37-2.37-1.11-3.71.02-.14.19-.19.28-.09l1.97,2.04s.12.05.16.05l2.07-.58s.09-.05.12-.12l.53-2.11s0-.12-.05-.16l-2.02-2.06c-.09-.09-.05-.26.09-.28,1.32-.26,2.67.19,3.6,1.16,1.09,1.14,1.49,2.76,1.02,4.24l.39.42,1.56,1.6,4.6-4.73-.09-.09s-.07-.14,0-.21l.7-.9,2.46-1.65c.07-.05.16-.05.21.02Zm-79.68-20.63h5.98m81.11,20.99c-.77-1.31-1.69-2.51-2.76-3.58-1.08-1.08-2.27-2-3.58-2.76s-2.72-1.36-4.23-1.78-3.07-.63-4.7-.63-3.19.21-4.7.63-2.92,1.01-4.23,1.78c-1.31.77-2.51,1.69-3.58,2.76-1.08,1.08-2,2.27-2.76,3.58-.77,1.31-1.36,2.72-1.78,4.23-.42,1.51-.63,3.07-.63,4.7s.21,3.19.63,4.7c.42,1.51,1.01,2.92,1.78,4.23.77,1.31,1.69,2.51,2.76,3.58,1.08,1.08,2.27,2,3.58,2.76,1.31.77,2.72,1.36,4.22,1.78s3.07.63,4.71.63,3.19-.21,4.7-.63,2.92-1.01,4.23-1.78,2.51-1.69,3.58-2.76c1.08-1.08,2-2.27,2.76-3.58.77-1.31,1.36-2.72,1.78-4.22.42-1.5.63-3.07.63-4.71s-.21-3.19-.63-4.7c-.42-1.51-1.01-2.92-1.78-4.23Zm-69.14-20.99h5.98m-5.98,23.94h5.98m-23.94,0h5.98m-5.98-11.97h5.98m84.48-55.99c0,.88-.17,1.73-.5,2.56-.33.83-.82,1.56-1.46,2.2l-26.34,26.34-12.66,3.16,3.16-12.66,26.34-26.34c.64-.64,1.37-1.13,2.2-1.46.83-.33,1.68-.5,2.56-.5s1.79.18,2.6.53,1.52.83,2.13,1.44,1.09,1.32,1.44,2.13.53,1.68.53,2.6Zm-145.63,63.75c2.24,7.95,5.41,15.36,9.51,22.24,4.1,6.88,9,13.16,14.73,18.84,5.72,5.68,12.04,10.55,18.96,14.58,6.91,4.04,14.35,7.15,22.31,9.33,7.97,2.18,16.24,3.25,24.81,3.22,11.05-.04,21.64-1.94,31.75-5.69,10.11-3.76,19.4-9.14,27.85-16.16,4.01-4.04,8.02-8.08,12.02-12.12,6.95-8.51,12.26-17.84,15.94-27.98,3.67-10.14,5.48-20.74,5.44-31.79-.03-8.57-1.17-16.83-3.42-24.79-2.24-7.95-5.41-15.36-9.51-22.24-4.09-6.88-9-13.16-14.73-18.84-5.72-5.68-12.04-10.54-18.96-14.58-6.91-4.04-14.35-7.15-22.32-9.33-7.97-2.18-16.24-3.25-24.82-3.22-8.57.03-16.83,1.17-24.79,3.42-7.95,2.24-15.36,5.41-22.24,9.51-6.88,4.1-13.16,9-18.84,14.73-5.68,5.72-10.54,12.04-14.58,18.96-4.04,6.91-7.15,14.35-9.33,22.32-2.18,7.97-3.25,16.24-3.22,24.81.03,8.58,1.17,16.84,3.42,24.79Zm-1590.93,2666.74,103.3,1404.81,47.09-1399.56l-35.78,18.45v45.93l35.78,18.45,35.78-18.45v-45.93l-35.78-18.45Zm35.78,18.45l-35.78,18.9v45.48m-35.78-64.37l35.78,18.9"/>
</svg>
