<?xml version="1.0" encoding="UTF-8"?>
<svg id="Layer_1" data-name="Layer 1" xmlns="http://www.w3.org/2000/svg" xmlns:xlink="http://www.w3.org/1999/xlink" viewBox="0 0 250 250">
  <defs>
    <style>
      .cls-1 {
        stroke: url(#linear-gradient);
        stroke-linecap: round;
        stroke-linejoin: round;
      }

      .cls-1, .cls-2, .cls-3, .cls-4, .cls-5 {
        fill: none;
      }

      .cls-1, .cls-2, .cls-3, .cls-5 {
        fill-rule: evenodd;
      }

      .cls-2 {
        stroke: url(#linear-gradient-3);
      }

      .cls-2, .cls-3, .cls-4, .cls-5 {
        stroke-miterlimit: 10;
      }

      .cls-3 {
        stroke: url(#linear-gradient-2);
      }

      .cls-4 {
        stroke: aqua;
        stroke-width: 10px;
      }

      .cls-5 {
        stroke: url(#linear-gradient-4);
      }
    </style>
    <linearGradient id="linear-gradient" x1="-1887.81" y1="-31.67" x2="182.03" y2="-31.67" gradientUnits="userSpaceOnUse">
      <stop offset="0" stop-color="#00a8dc"/>
      <stop offset="1" stop-color="#00619a"/>
    </linearGradient>
    <linearGradient id="linear-gradient-2" x1="21.57" y1="125" x2="228.43" y2="125" xlink:href="#linear-gradient"/>
    <linearGradient id="linear-gradient-3" x1="160.23" y1="200.79" x2="160.89" y2="200.79" xlink:href="#linear-gradient"/>
    <linearGradient id="linear-gradient-4" y1="3885.46" x2="176.58" y2="3885.46" xlink:href="#linear-gradient"/>
  </defs>
  <path class="cls-1" d="m-1673.82-746.26h-194.93c-10.21,0-18.56,8.35-18.56,18.56v194.93c0,10.21,8.35,18.56,18.56,18.56h194.93c10.21,0,18.56-8.35,18.56-18.56v-194.93c0-10.21-8.35-18.56-18.56-18.56h0Zm-152.48,137.95c-2.57,0-4.58-.46-5.92-.87-.65-.2-1.28-.43-1.91-.7-2.45-1.05-4.59-2.49-6.42-4.31-1.82-1.82-3.26-3.96-4.31-6.41-1.05-2.45-1.57-5.06-1.57-7.83s.52-5.37,1.57-7.8c1.05-2.43,2.48-4.56,4.31-6.38,1.82-1.82,3.96-3.27,6.42-4.34.68-.3,1.37-.55,2.08-.77,2.57-.78,4.65-.82,5.75-.84,10.57-.13,22.92-.03,22.92-.03m76.65,33.87c1.34.34,2.57.87,3.68,1.6,1.11.73,2.08,1.63,2.89,2.67.82,1.05,1.45,2.2,1.89,3.46s.66,2.58.66,3.96v30.95c0,4.99-.95,9.69-2.86,14.09-1.91,4.4-4.5,8.24-7.77,11.51s-7.11,5.86-11.51,7.77-9.1,2.86-14.09,2.86c-6.12,0-11.75-1.14-16.89-3.43-5.14-2.28-9.87-5.59-14.18-9.91l-29.69-29.63c-1.18-1.17-2.08-2.54-2.71-4.09-.63-1.55-.94-3.15-.94-4.78,0-1.76.32-3.4.97-4.91.65-1.51,1.54-2.83,2.67-3.96,1.13-1.13,2.46-2.02,3.99-2.67,1.53-.65,3.15-.97,4.87-.97s3.33.31,4.84.94c1.51.63,2.87,1.53,4.09,2.71,1.13,1.09,2.25,2.2,3.36,3.33,1.11,1.13,2.23,2.24,3.37,3.33v-62.14c0-1.72.29-3.34.88-4.87.59-1.53,1.41-2.87,2.48-4.03s2.35-2.07,3.84-2.74c1.49-.67,3.11-1.01,4.87-1.01s3.25.31,4.72.94c1.47.63,2.75,1.49,3.84,2.58,1.09,1.09,1.95,2.37,2.58,3.84.63,1.47.94,3.04.94,4.72v28.05l39.18,9.81Zm-20.44-49.7c.31-.08.79-.24,1.38-.24,1.68,0,3.25.31,4.72.94,1.47.63,2.75,1.49,3.84,2.58,1.09,1.09,1.95,2.37,2.58,3.84.63,1.47.94,3.04.94,4.72s-.31,3.25-.94,4.72c-.63,1.47-1.49,2.75-2.58,3.84s-2.37,1.95-3.84,2.58c-.67.29-1.87.71-4.72.94-1.58.13-3.74.21-6.32,0M181.53,682.92h0M-1732.58-705.99c0,.15,0,.3.01.45,0,.15.01.3.01.45s0,.3-.01.45c0,.15-.01.3-.01.45l6.43,4-3.95,9.51-7.37-1.69c-.4.43-.81.84-1.24,1.24l1.69,7.37-9.51,3.95-4-6.43c-.15,0-.3,0-.45.01s-.3.01-.45.01-.3,0-.45-.01-.3-.01-.45-.01l-4,6.43-9.51-3.95,1.69-7.37c-.43-.4-.84-.81-1.24-1.24l-7.37,1.69-3.95-9.51,6.43-4c0-.15,0-.3-.01-.45s-.01-.3-.01-.45,0-.3.01-.45.01-.3.01-.45l-6.43-4,3.95-9.51,7.37,1.69c.4-.43.81-.84,1.24-1.24l-1.69-7.37,9.51-3.95,4,6.43c.15,0,.3,0,.45-.01.15,0,.3-.01.45-.01s.3,0,.45.01c.15,0,.3.01.45.01l4-6.43,9.51,3.95-1.69,7.37c.43.4.84.81,1.24,1.24l7.37-1.69,3.95,9.51-6.43,4Zm-18.84-8.44c1.29,0,2.5.24,3.64.73s2.12,1.15,2.97,2,1.51,1.83,2,2.97.73,2.35.73,3.64-.24,2.5-.73,3.64-1.15,2.12-2,2.97-1.83,1.51-2.97,2c-1.13.49-2.35.73-3.64.73s-2.5-.24-3.64-.73c-1.13-.49-2.12-1.15-2.97-2s-1.51-1.83-2-2.97c-.49-1.13-.73-2.35-.73-3.64s.24-2.5.73-3.64c.49-1.13,1.15-2.12,2-2.97s1.83-1.51,2.97-2,2.35-.73,3.64-.73Z"/>
  <g>
    <path class="cls-3" d="m159.02,211.56c-1.71,0-3.4-.52-4.83-1.5-2.27-1.55-4.44-3.24-6.35-4.73l-19.6-14.93c-.91-.72-1.74-1.37-2.57-2.01-.6-.46-1.19-.92-1.78-1.39H34.35c-5.79,0-10.7-4.01-11.94-9.76-.24-1.19-.24-2.14-.24-2.84,0-8.69-.03-31.86-.05-56.17-.03-26.83-.06-55.06-.06-66.75,0-5.62,2.61-8.78,4.86-10.45,2.57-2.04,5.36-2.45,7.24-2.59h.73s179.75-.01,179.75-.01c5.67,0,8.87,2.77,10.55,5.1,1.57,2.09,2.4,4.72,2.4,7.73,0,11.17.09,38.53.17,64.94.08,24.68.16,48.54.16,57.64,0,2.28-.58,4.56-1.69,6.58l-.12.2c-1.74,2.9-4.5,4.87-7.98,5.68-1.48.37-2.78.37-3.83.37h-46.52v15.43c0,1.76-.35,3.35-1.04,4.73l-.15.28c-1.23,2.14-3.3,3.69-5.7,4.23-.62.14-1.26.21-1.89.21Z"/>
    <path class="cls-2" d="m160.55,200.78s.02.01.02.02c0,0-.02-.01-.02-.02Z"/>
  </g>
  <rect class="cls-4" x="-544.61" y="-3071.35" width="926.61" height="11958.26"/>
  <path class="cls-5" d="m-1673.82,3603.74h-194.93c-10.21,0-18.56,8.35-18.56,18.56v194.93c0,10.21,8.35,18.56,18.56,18.56h194.93c10.21,0,18.56-8.35,18.56-18.56v-194.93c0-10.21-8.35-18.56-18.56-18.56h0Zm-111.06,158.88c0,.25,0,.5.02.75.01.25.02.5.02.75s0,.5-.02.75c-.01.25-.02.5-.02.75l10.72,6.67-6.58,15.86-12.3-2.82c-.66.72-1.35,1.41-2.07,2.07l2.82,12.3-15.86,6.58-6.67-10.72c-.25,0-.5,0-.75.02s-.5.02-.75.02-.5,0-.75-.02-.5-.02-.75-.02l-6.67,10.72-15.86-6.58,2.82-12.3c-.72-.66-1.41-1.35-2.07-2.07l-12.3,2.82-6.58-15.86,10.72-6.67c0-.25,0-.5-.02-.75s-.02-.5-.02-.75,0-.5.02-.75.02-.5.02-.75l-10.72-6.67,6.58-15.86,12.3,2.82c.66-.72,1.35-1.41,2.07-2.07l-2.82-12.3,15.86-6.58,6.67,10.72c.25,0,.5,0,.75-.02.25-.01.5-.02.75-.02s.5,0,.75.02c.25.01.5.02.75.02l6.67-10.72,15.86,6.58-2.82,12.3c.72.66,1.41,1.35,2.07,2.07l12.3-2.82,6.58,15.86-10.72,6.67Zm-.51-114.42v7.89s-3.29,6.02-33.77,6.02-33.71-6.02-33.71-6.02v-7.63m67.47,20.87v7.43s-3.29,6.02-33.77,6.02-33.71-6.02-33.71-6.02v-7.17m67.47,20.09v7.75s-3.29,6.02-33.77,6.02-33.71-6.02-33.71-6.02v-6.96m1.65-55.19c0,3.56,14.38,6.45,32.12,6.45s32.06-2.89,32.06-6.45M-131,1038h0m0,0h0m0,0h0m0,0h0m0,0h0m0,0h0m0,0h0m0,0h0m0,0h0m0,0h0m0,0h0m-1641.31,6672.15M-131,1038h0M111.41,63.09c-4.34,1.21-8.41,2.93-12.2,5.14-3.79,2.21-7.24,4.87-10.35,7.98-3.11,3.11-5.77,6.56-7.98,10.35-2.21,3.79-3.93,7.87-5.14,12.22-1.22,4.36-1.82,8.88-1.82,13.57s.61,9.25,1.82,13.59c1.21,4.34,2.93,8.41,5.14,12.2,2.21,3.79,4.87,7.24,7.98,10.35,3.11,3.11,6.56,5.77,10.35,7.98,3.79,2.21,7.86,3.93,12.22,5.14,4.36,1.21,8.88,1.82,13.57,1.82s9.21-.61,13.57-1.82c4.36-1.21,8.43-2.93,12.22-5.14,3.79-2.21,7.24-4.87,10.35-7.98,3.11-3.11,5.77-6.56,7.98-10.35,2.21-3.79,3.92-7.86,5.14-12.22,1.21-4.36,1.82-8.88,1.82-13.57s-.61-9.21-1.82-13.57c-1.22-4.36-2.93-8.43-5.14-12.22-2.21-3.79-4.87-7.24-7.98-10.35-3.11-3.11-6.56-5.77-10.35-7.98-3.79-2.21-7.86-3.92-12.22-5.14-4.36-1.21-8.88-1.82-13.57-1.82s-9.25.61-13.59,1.82Zm42.08,71.84c-1.36-2.69-3.04-5.14-5.04-7.33-2-2.2-4.22-4.06-6.69-5.59-2.46-1.53-5.1-2.71-7.93-3.54-2.83-.83-5.77-1.25-8.83-1.25s-5.96.42-8.81,1.25c-2.84.83-5.49,2.01-7.96,3.54-2.46,1.53-4.69,3.39-6.68,5.59-2,2.2-3.68,4.64-5.04,7.33m-227.51,903.07h0M108.34,105.47c.76-.33,1.44-.79,2.02-1.37.58-.58,1.04-1.25,1.37-2.02.33-.76.5-1.6.5-2.49s-.17-1.73-.5-2.49c-.33-.76-.79-1.44-1.37-2.02-.58-.58-1.26-1.04-2.02-1.37-.77-.33-1.6-.5-2.49-.5s-1.73.17-2.49.5c-.77.33-1.44.79-2.02,1.37-.58.58-1.04,1.26-1.37,2.02-.33.77-.5,1.6-.5,2.49s.17,1.73.5,2.49c.33.77.79,1.44,1.37,2.02.58.58,1.25,1.04,2.02,1.37.76.33,1.6.5,2.49.5s1.73-.17,2.49-.5Zm38.31,0c.77-.33,1.44-.79,2.02-1.37.58-.58,1.04-1.25,1.37-2.02.33-.76.5-1.6.5-2.49s-.17-1.73-.5-2.49c-.33-.76-.79-1.44-1.37-2.02-.58-.58-1.25-1.04-2.02-1.37-.76-.33-1.59-.5-2.49-.5s-1.73.17-2.49.5c-.77.33-1.44.79-2.02,1.37-.58.58-1.04,1.26-1.37,2.02-.33.77-.5,1.6-.5,2.49s.17,1.73.5,2.49c.33.77.79,1.44,1.37,2.02.58.58,1.25,1.04,2.02,1.37.76.33,1.6.5,2.49.5s1.73-.17,2.49-.5Zm-44.56,29.46-233.09,903.07h0m0,0h0m0,0h0m0,0h0m-25.8-344.46h10.33m-78.23,22.35h7.37m-6.52,44.7h10.33m22.35,0h11.18m-11.18-22.35h11.18m100.18-5.51l.4-106.25m-178.82,12.02v118.29m12.02,26.16h116.76m12.67-167.64h-7.33v11.18h-89.41v-11.18h-11.18v11.18h-7.72m74.77,134.11h11.18m87.74,2.4c-.79-2.82-1.89-5.45-3.32-7.9-1.43-2.45-3.15-4.68-5.16-6.69-2.01-2.01-4.24-3.73-6.69-5.16s-5.09-2.54-7.9-3.32c-2.82-.78-5.74-1.18-8.78-1.18s-5.96.39-8.77,1.18-5.45,1.89-7.9,3.32-4.68,3.15-6.69,5.16c-2.01,2.01-3.73,4.24-5.16,6.69-1.43,2.45-2.54,5.09-3.32,7.9-.79,2.82-1.18,5.74-1.18,8.78s.39,5.96,1.18,8.78c.78,2.82,1.89,5.45,3.32,7.9,1.43,2.45,3.15,4.68,5.16,6.69,2.01,2.01,4.24,3.73,6.69,5.16s5.08,2.54,7.89,3.32,5.74,1.18,8.79,1.18,5.96-.39,8.78-1.18c2.82-.78,5.45-1.89,7.9-3.32s4.68-3.15,6.69-5.16c2.01-2.01,3.73-4.24,5.16-6.69,1.43-2.45,2.54-5.08,3.32-7.89.78-2.81,1.18-5.74,1.18-8.79s-.39-5.96-1.18-8.78Zm-18.37-7.31l.44.44c-.08.16-.04.28-.12.4l-2.69,4.46-1.49,1.24c-.08.08-.28.08-.36,0l-.16-.16-8,8.15,9.36,9.68,2.09,2.17c.6.64.92,1.53.92,2.41.04.88-.32,1.77-.92,2.45-.04.04-.08.08-.16.16-1.29,1.2-3.3,1.12-4.5-.16l-10.49-11s-.12.08-.16.16c-.76.76-1.12,1.81-1,2.89l-8.48,8.79c-.24.24-.6.24-.8,0l-4.18-4.38c-.2-.2-.2-.56,0-.76l8.56-8.79c1.05.12,2.09-.24,2.77-1,.08-.08.12-.16.2-.24l-1.69-1.77-.72-.8-.12-.12c-2.45.72-5.06,0-6.83-1.81-1.65-1.73-2.37-4.1-1.93-6.42.04-.24.32-.32.48-.16l3.42,3.53c.08.08.2.08.28.08l3.58-1c.08,0,.16-.08.2-.2l.92-3.65c0-.08,0-.2-.08-.28l-3.5-3.57c-.16-.16-.08-.44.16-.48,2.29-.44,4.62.32,6.23,2.01,1.89,1.97,2.57,4.78,1.77,7.35l.68.72,2.69,2.77,7.96-8.19-.16-.16c-.08-.08-.12-.24,0-.36l1.21-1.57,4.26-2.85c.12-.08.28-.08.36.04Zm-43.21-17.45h7.37m-11.18-44.7h11.18m-11.18,22.35h11.18m-153.9-106.77l138.39,138.39m-139.24,37.82l88.53-88.53,86.85-86.85m-86.21,374.38h-5.98m-17.95,11.97h5.98m11.97,11.97h5.98m17.95-23.94h-5.98m-17.95-11.97h5.98m35.91,18.02v-21.11m-41.89,27.02h5.98m5.33,23.94h-65.18v-83.78h17.95v-5.98h5.98v5.98h47.88v-5.98h5.98v5.98h5.17m-47.06,35.91h5.98m29.92,23.94h5.98m19.83,8.66l.26.25c-.05.09-.02.16-.07.23l-1.56,2.57-.86.72s-.16.05-.21,0l-.09-.09-4.62,4.71,5.41,5.59,1.21,1.25c.35.37.53.88.53,1.39.02.51-.19,1.02-.53,1.41-.02.02-.05.05-.09.09-.74.7-1.9.65-2.6-.09l-6.06-6.36s-.07.05-.09.09c-.44.44-.65,1.04-.58,1.67l-4.9,5.08c-.14.14-.35.14-.46,0l-2.41-2.53c-.12-.12-.12-.32,0-.44l4.95-5.08c.6.07,1.21-.14,1.6-.58.05-.05.07-.09.12-.14l-.97-1.02-.42-.46-.07-.07c-1.42.42-2.93,0-3.95-1.04-.95-1-1.37-2.37-1.11-3.71.02-.14.19-.19.28-.09l1.97,2.04s.12.05.16.05l2.07-.58s.09-.05.12-.12l.53-2.11s0-.12-.05-.16l-2.02-2.06c-.09-.09-.05-.26.09-.28,1.32-.26,2.67.19,3.6,1.16,1.09,1.14,1.49,2.76,1.02,4.24l.39.42,1.56,1.6,4.6-4.73-.09-.09s-.07-.14,0-.21l.7-.9,2.46-1.65c.07-.05.16-.05.21.02Zm-79.68-20.63h5.98m81.11,20.99c-.77-1.31-1.69-2.51-2.76-3.58-1.08-1.08-2.27-2-3.58-2.76s-2.72-1.36-4.23-1.78-3.07-.63-4.7-.63-3.19.21-4.7.63-2.92,1.01-4.23,1.78c-1.31.77-2.51,1.69-3.58,2.76-1.08,1.08-2,2.27-2.76,3.58-.77,1.31-1.36,2.72-1.78,4.23-.42,1.51-.63,3.07-.63,4.7s.21,3.19.63,4.7c.42,1.51,1.01,2.92,1.78,4.23.77,1.31,1.69,2.51,2.76,3.58,1.08,1.08,2.27,2,3.58,2.76,1.31.77,2.72,1.36,4.22,1.78s3.07.63,4.71.63,3.19-.21,4.7-.63,2.92-1.01,4.23-1.78,2.51-1.69,3.58-2.76c1.08-1.08,2-2.27,2.76-3.58.77-1.31,1.36-2.72,1.78-4.22.42-1.5.63-3.07.63-4.71s-.21-3.19-.63-4.7c-.42-1.51-1.01-2.92-1.78-4.23Zm-69.14-20.99h5.98m-5.98,23.94h5.98m-23.94,0h5.98m-5.98-11.97h5.98m84.48-55.99c0,.88-.17,1.73-.5,2.56-.33.83-.82,1.56-1.46,2.2l-26.34,26.34-12.66,3.16,3.16-12.66,26.34-26.34c.64-.64,1.37-1.13,2.2-1.46.83-.33,1.68-.5,2.56-.5s1.79.18,2.6.53,1.52.83,2.13,1.44,1.09,1.32,1.44,2.13.53,1.68.53,2.6Zm-145.63,63.75c2.24,7.95,5.41,15.36,9.51,22.24,4.1,6.88,9,13.16,14.73,18.84,5.72,5.68,12.04,10.55,18.96,14.58,6.91,4.04,14.35,7.15,22.31,9.33,7.97,2.18,16.24,3.25,24.81,3.22,11.05-.04,21.64-1.94,31.75-5.69,10.11-3.76,19.4-9.14,27.85-16.16,4.01-4.04,8.02-8.08,12.02-12.12,6.95-8.51,12.26-17.84,15.94-27.98,3.67-10.14,5.48-20.74,5.44-31.79-.03-8.57-1.17-16.83-3.42-24.79-2.24-7.95-5.41-15.36-9.51-22.24-4.09-6.88-9-13.16-14.73-18.84-5.72-5.68-12.04-10.54-18.96-14.58-6.91-4.04-14.35-7.15-22.32-9.33-7.97-2.18-16.24-3.25-24.82-3.22-8.57.03-16.83,1.17-24.79,3.42-7.95,2.24-15.36,5.41-22.24,9.51-6.88,4.1-13.16,9-18.84,14.73-5.68,5.72-10.54,12.04-14.58,18.96-4.04,6.91-7.15,14.35-9.33,22.32-2.18,7.97-3.25,16.24-3.22,24.81.03,8.58,1.17,16.84,3.42,24.79Zm-1590.93,2666.74,103.3,1404.81,47.09-1399.56l-35.78,18.45v45.93l35.78,18.45,35.78-18.45v-45.93l-35.78-18.45Zm35.78,18.45l-35.78,18.9v45.48m-35.78-64.37l35.78,18.9"/>
</svg>
