<?xml version="1.0" encoding="UTF-8"?>
<svg id="Layer_1" data-name="Layer 1" xmlns="http://www.w3.org/2000/svg" xmlns:xlink="http://www.w3.org/1999/xlink" viewBox="0 0 250 250">
  <defs>
    <style>
      .cls-1 {
        stroke: aqua;
        stroke-width: 10px;
      }

      .cls-1, .cls-2 {
        fill: none;
        stroke-miterlimit: 10;
      }

      .cls-2 {
        stroke: url(#linear-gradient);
      }
    </style>
    <linearGradient id="linear-gradient" x1="40.62" y1="125" x2="209.06" y2="125" gradientUnits="userSpaceOnUse">
      <stop offset="0" stop-color="#00a8dc"/>
      <stop offset="1" stop-color="#00619a"/>
    </linearGradient>
  </defs>
  <path class="cls-2" d="m161.27,209.17H41.12V23.41h105.5l51.88,49.8v87.24m-53.41-112.12c9.23,8.84,18.45,17.68,27.68,26.52m1.53,53.14h-108.98m108.98,46.32h-108.98m108.98-23.28h-108.98m56.48-46.07v-27.27l2.85,2.74,2.98-2.99-31.78-31.87-31.65,31.87,2.98,2.99,2.73-2.74v27.27m138.51,71.06c-1.59-.43-3.17-.85-4.75-1.28-1.8-.21-3.39-.43-5.2-.43-2.49,0-4.75.22-6.56.85-2.03.64-3.61,1.5-4.97,2.56-1.36,1.28-2.48,2.78-3.39,4.69-.91,1.93-1.36,4.06-1.59,6.62v22.4c0,2.78.68,5.34,1.36,7.25.91,1.93,2.03,3.41,3.39,4.69,1.36,1.28,3.16,1.93,5.2,2.56,2.04.43,4.3.65,6.56.65,1.8,0,3.61-.22,5.42-.43,1.82-.22,3.39-.65,4.98-1.28m-11.04-32.23h-13.3m0,14.7h13.3m-23.53-14.7h24.2m0,14.7h-24.2"/>
  <rect class="cls-1" x="-254.61" y="-11481.35" width="926.61" height="11958.26"/>
</svg>