<?xml version="1.0" encoding="UTF-8"?>
<svg id="Layer_1" data-name="Layer 1" xmlns="http://www.w3.org/2000/svg" xmlns:xlink="http://www.w3.org/1999/xlink" viewBox="0 0 250 250">
  <defs>
    <style>
      .cls-1 {
        clip-path: url(#clippath);
      }

      .cls-1, .cls-2, .cls-3, .cls-4, .cls-5 {
        fill: none;
        stroke-miterlimit: 10;
      }

      .cls-1, .cls-3 {
        clip-rule: evenodd;
      }

      .cls-1, .cls-5 {
        stroke: url(#linear-gradient);
      }

      .cls-6 {
        clip-path: url(#clippath-1);
      }

      .cls-2 {
        stroke: aqua;
        stroke-width: 10px;
      }

      .cls-3 {
        stroke: url(#linear-gradient-2);
      }

      .cls-4 {
        stroke: url(#linear-gradient-4);
      }

      .cls-4, .cls-5 {
        fill-rule: evenodd;
      }

      .cls-7 {
        fill: url(#linear-gradient-3);
        stroke-width: 0px;
      }
    </style>
    <linearGradient id="linear-gradient" x1="119.09" y1="172.26" x2="203.86" y2="172.26" gradientUnits="userSpaceOnUse">
      <stop offset="0" stop-color="#00a8dc"/>
      <stop offset="1" stop-color="#00619a"/>
    </linearGradient>
    <linearGradient id="linear-gradient-2" x1="46.14" y1="114.62" x2="165.34" y2="114.62" xlink:href="#linear-gradient"/>
    <clipPath id="clippath">
      <path class="cls-3" d="m46.64,193.84c0-7.41,1.09-14.38,3.27-21.13s5.22-12.85,9.14-18.52c3.92-5.66,8.71-10.67,14.37-15.03,5.66-4.36,11.97-7.62,18.72-10.24-3.92-2.18-7.62-4.79-10.88-7.84-3.27-3.05-5.88-6.53-8.05-10.24-2.18-3.7-3.92-7.84-5.22-12.2-1.31-4.36-1.74-8.71-1.74-13.29,0-6.75,1.31-13.29,3.92-19.17,2.61-5.88,6.1-11.11,10.45-15.68,4.57-4.57,9.8-8.06,15.67-10.46,6.09-2.83,12.63-4.14,19.37-4.14s13.28,1.31,19.16,3.92c5.88,2.61,11.1,6.1,15.67,10.46,4.57,4.57,8.05,9.8,10.45,15.68,2.61,5.88,3.92,12.42,3.92,19.17,0,4.57-.65,8.93-1.74,13.07-1.31,4.36-2.83,8.28-5.22,11.98-2.18,3.7-5.01,7.19-8.05,10.24-3.05,3.05-6.75,5.66-10.67,7.84,6.97,2.4,13.28,5.88,18.94,10.24,1.74,1.31,3.27,2.61,4.79,4.14"/>
    </clipPath>
    <clipPath id="clippath-1">
      <path class="cls-1" d="m203.36,143.95c0,1.74-.44,3.49-1.09,5.23-.65,1.74-1.74,3.27-3.05,4.57l-53.55,53.81-25.9,6.54,6.53-25.92,53.77-53.81c1.31-1.31,2.83-2.4,4.57-3.05,1.74-.65,3.48-1.09,5.22-1.09,1.96,0,3.7.44,5.22,1.09,1.74.65,3.05,1.74,4.35,2.83,1.31,1.31,2.18,2.61,2.83,4.36.87,1.96,1.09,3.7,1.09,5.45h0Z"/>
    </clipPath>
    <linearGradient id="linear-gradient-3" x1="151.25" y1="148.48" x2="154.14" y2="148.48" xlink:href="#linear-gradient"/>
    <linearGradient id="linear-gradient-4" x1="46.14" y1="114.62" x2="165.34" y2="114.62" xlink:href="#linear-gradient"/>
  </defs>
  <g>
    <g class="cls-6">
      <path class="cls-7" d="m152.7,149.98c1.93,0,1.93-3,0-3s-1.93,3,0,3h0Z"/>
    </g>
    <path class="cls-4" d="m46.64,193.84c0-7.41,1.09-14.38,3.27-21.13s5.22-12.85,9.14-18.52c3.92-5.66,8.71-10.67,14.37-15.03,5.66-4.36,11.97-7.62,18.72-10.24-3.92-2.18-7.62-4.79-10.88-7.84-3.27-3.05-5.88-6.53-8.05-10.24-2.18-3.7-3.92-7.84-5.22-12.2-1.31-4.36-1.74-8.71-1.74-13.29,0-6.75,1.31-13.29,3.92-19.17,2.61-5.88,6.1-11.11,10.45-15.68,4.57-4.57,9.8-8.06,15.67-10.46,6.09-2.83,12.63-4.14,19.37-4.14s13.28,1.31,19.16,3.92c5.88,2.61,11.1,6.1,15.67,10.46,4.57,4.57,8.05,9.8,10.45,15.68,2.61,5.88,3.92,12.42,3.92,19.17,0,4.57-.65,8.93-1.74,13.07-1.31,4.36-2.83,8.28-5.22,11.98-2.18,3.7-5.01,7.19-8.05,10.24-3.05,3.05-6.75,5.66-10.67,7.84,6.97,2.4,13.28,5.88,18.94,10.24,1.74,1.31,3.27,2.61,4.79,4.14"/>
    <path class="cls-5" d="m203.36,143.95c0,1.74-.44,3.49-1.09,5.23-.65,1.74-1.74,3.27-3.05,4.57l-53.55,53.81-25.9,6.54,6.53-25.92,53.77-53.81c1.31-1.31,2.83-2.4,4.57-3.05,1.74-.65,3.48-1.09,5.22-1.09,1.96,0,3.7.44,5.22,1.09,1.74.65,3.05,1.74,4.35,2.83,1.31,1.31,2.18,2.61,2.83,4.36.87,1.96,1.09,3.7,1.09,5.45h0Z"/>
  </g>
  <rect class="cls-2" x="-544.61" y="-171.35" width="926.61" height="11958.26"/>
</svg>