<?xml version="1.0" encoding="UTF-8"?>
<svg id="Layer_1" data-name="Layer 1" xmlns="http://www.w3.org/2000/svg" xmlns:xlink="http://www.w3.org/1999/xlink" viewBox="0 0 250 250">
  <defs>
    <style>
      .cls-1 {
        stroke: aqua;
        stroke-width: 10px;
      }

      .cls-1, .cls-2 {
        fill: none;
        stroke-miterlimit: 10;
      }

      .cls-2 {
        stroke: url(#linear-gradient);
      }
    </style>
    <linearGradient id="linear-gradient" x1="28.67" y1="124.64" x2="221.32" y2="124.64" gradientUnits="userSpaceOnUse">
      <stop offset="0" stop-color="#00a8dc"/>
      <stop offset="1" stop-color="#00619a"/>
    </linearGradient>
  </defs>
  <path class="cls-2" d="m46.96,217.88v-85.23l-8.35,8.71-9.25-9.42L125,31.89l95.63,100.06-9.25,9.65-8.35-8.95v85.46m-78.04-7.58c-3.73-2.19-7.43-4.54-11.12-7.03-3.68-2.49-7.19-5.17-10.53-8.04s-6.44-5.93-9.31-9.19c-2.87-3.26-5.35-6.75-7.45-10.48-2.1-3.73-3.75-7.69-4.94-11.89s-1.79-8.66-1.79-13.4v-24.07c2.6,0,5.12-.09,7.57-.28s4.82-.53,7.15-1.03c2.32-.5,4.61-1.21,6.86-2.11,2.26-.91,4.51-2.08,6.77-3.53,2.66-1.72,5.33-3,7.99-3.83,2.66-.83,5.6-1.25,8.79-1.25,1.6,0,3.12.1,4.56.31,1.44.2,2.85.52,4.21.94s2.7.96,4.02,1.6c1.31.64,2.65,1.39,3.99,2.23,2.26,1.44,4.51,2.62,6.77,3.53,2.26.91,4.55,1.61,6.86,2.11,2.32.5,4.7.85,7.15,1.03s4.97.28,7.57.28v24.07c0,4.73-.6,9.2-1.79,13.4-1.19,4.2-2.84,8.16-4.93,11.89-2.1,3.73-4.59,7.22-7.45,10.48-2.87,3.26-5.97,6.32-9.31,9.19-3.33,2.87-6.85,5.55-10.53,8.04-3.68,2.49-7.39,4.83-11.12,7.03Z"/>
  <rect class="cls-1" x="-544.61" y="-751.35" width="926.61" height="11958.26"/>
</svg>