<?xml version="1.0" encoding="UTF-8"?>
<svg id="Layer_1" data-name="Layer 1" xmlns="http://www.w3.org/2000/svg" xmlns:xlink="http://www.w3.org/1999/xlink" viewBox="0 0 250 250">
  <defs>
    <style>
      .cls-1 {
        stroke: aqua;
        stroke-width: 10px;
      }

      .cls-1, .cls-2 {
        fill: none;
        stroke-miterlimit: 10;
      }

      .cls-2 {
        stroke: url(#linear-gradient);
      }
    </style>
    <linearGradient id="linear-gradient" x1="48.79" y1="125" x2="201.21" y2="125" gradientUnits="userSpaceOnUse">
      <stop offset="0" stop-color="#00a8dc"/>
      <stop offset="1" stop-color="#00619a"/>
    </linearGradient>
  </defs>
  <path class="cls-2" d="m112.81,143.58h-40.23m0-66.64h58.37m-58.37,22.21h58.37m-58.37,22.22h62.45m-62.45,44.43h23.36m104.78-82.12v130.42H49.29V35.91h101.5l49.92,47.77Zm-22.94-.23c-8.88-8.48-17.75-16.96-26.63-25.44m-5.32,107.78h31.6m-9.39-22.21h9.39m-104.85,44.55h17.78m27.62,0h59.45m-14.78-72.41c1.29.56,2.41,1.32,3.37,2.28.96.96,1.72,2.08,2.28,3.37s.84,2.66.84,4.11-.26,2.74-.79,4.05c-.53,1.31-1.3,2.47-2.31,3.48l-41.65,41.65-20.02,5,5-20.02,41.65-41.65c1.01-1.01,2.17-1.78,3.48-2.31,1.31-.53,2.66-.79,4.05-.79s2.82.28,4.11.84Z"/>
  <rect class="cls-1" x="-544.61" y="-1331.35" width="926.61" height="11958.26"/>
</svg>