<?xml version="1.0" encoding="UTF-8"?>
<svg id="Layer_1" data-name="Layer 1" xmlns="http://www.w3.org/2000/svg" xmlns:xlink="http://www.w3.org/1999/xlink" viewBox="0 0 250 250">
  <defs>
    <style>
      .cls-1 {
        stroke: aqua;
        stroke-width: 10px;
      }

      .cls-1, .cls-2 {
        fill: none;
        stroke-miterlimit: 10;
      }

      .cls-2 {
        stroke: url(#linear-gradient);
      }
    </style>
    <linearGradient id="linear-gradient" x1="32.08" y1="129.25" x2="222.48" y2="129.25" gradientUnits="userSpaceOnUse">
      <stop offset="0" stop-color="#00a8dc"/>
      <stop offset="1" stop-color="#00619a"/>
    </linearGradient>
  </defs>
  <path class="cls-2" d="m165.77,151.84H56.78m0-23.03h108.98m-104.39-23.03,0,0v-27.27l-2.73,2.74-2.98-2.99,31.65-31.87,31.78,31.87-2.98,2.99-2.85-2.74v27.27m-56.48,69.35h108.98m-40.98,34.86H32.58V24.23h105.5l51.88,49.8v65.06m-24.73-64.42c-9.23-8.84-18.45-17.68-27.68-26.52m77.46,144.38c.94,0,1.84.18,2.68.54.85.36,1.59.86,2.23,1.49.64.63,1.14,1.36,1.5,2.21.36.85.54,1.75.54,2.72,0,.77-.12,1.51-.36,2.21l-9.28,27.83c-.24.7-.58,1.35-1.01,1.94-.44.59-.94,1.09-1.52,1.5-.58.41-1.21.73-1.9.96-.69.23-1.41.34-2.16.34h-18.56c-4.33,0-8.49-.83-12.5-2.5-1.74-.7-3.49-1.23-5.24-1.59-1.75-.36-3.57-.54-5.45-.54h-16.24v-32.47h15.11c1.57,0,3.05-.29,4.44-.87,1.39-.58,2.64-1.42,3.75-2.54l22.54-22.51c.6-.6,1.21-1.08,1.81-1.41.6-.34,1.34-.51,2.21-.51.8,0,1.55.15,2.25.45.7.3,1.32.72,1.85,1.25s.95,1.15,1.25,1.85c.3.7.45,1.45.45,2.25,0,1.96-.22,3.82-.65,5.6s-1.08,3.53-1.92,5.27c-.48,1.04-.89,2.1-1.23,3.17-.34,1.08-.57,2.19-.69,3.35h16.09Z"/>
  <rect class="cls-1" x="-544.61" y="-1911.35" width="926.61" height="11958.26"/>
</svg>