<?xml version="1.0" encoding="UTF-8"?><svg id="a" xmlns="http://www.w3.org/2000/svg"  viewBox="0 0 150 150">  
<defs>
    <style>
      .cls-1 {
        fill: none;
        stroke-miterlimit: 3;
      }
    </style>
  </defs>
    <metadata>
      <category>Technology</category>
  </metadata>
  <path class="cls-1" d="m90.2,71.5s0,0,0,0,0,0,0,0c.5-1,.9-2.1,1.2-3.2.3-1.1.4-2.2.4-3.4,0-2.3-.4-4.5-1.3-6.6-.9-2-2.1-3.8-3.6-5.4-1.5-1.5-3.3-2.7-5.4-3.6-2-.9-4.2-1.3-6.6-1.3s-4.5.4-6.6,1.3c-2,.9-3.8,2.1-5.4,3.6-1.5,1.5-2.7,3.3-3.6,5.4-.9,2-1.3,4.2-1.3,6.6s.1,2.2.4,3.4c.3,1.1.7,2.2,1.2,3.2,0,0,0,0,0,0s0,0,0,0l15.2,30.4,15.2-30.4Z"/><path class="cls-1" d="m120,81.6c0-1.1.2-2.2.3-3.3,0-1.1.1-2.2.1-3.3s0-2.2-.1-3.3c0-1.1-.2-2.2-.3-3.3l16.6-10.3-6-14.6-19,4.4c-1.5-1.8-2.9-3.4-4.5-4.9-1.5-1.5-3.2-3-4.9-4.5l4.4-19-14.6-6-10.4,16.6c-1.1,0-2.2-.2-3.3-.3-1.1,0-2.2-.1-3.3-.1s-2.2,0-3.3.1c-1.1,0-2.2.2-3.3.3l-10.3-16.6-14.6,6,4.4,19c-1.8,1.5-3.4,2.9-4.9,4.5-1.5,1.5-3,3.2-4.5,4.9l-19-4.4-6,14.6,16.6,10.4c0,1.1-.2,2.2-.3,3.3,0,1.1-.1,2.2-.1,3.3s0,2.2.1,3.3c0,1.1.2,2.2.3,3.3l-16.6,10.3,6,14.6,19-4.4c1.4,1.8,2.9,3.4,4.5,4.9s3.2,3,4.9,4.5l-4.4,19,14.6,6,10.4-16.6c1.1,0,2.2.2,3.3.3,1.1,0,2.2.1,3.3.1s2.2,0,3.3-.1c1.1,0,2.2-.2,3.3-.3l10.3,16.6,14.6-6-4.4-19c1.8-1.4,3.4-2.9,4.9-4.5,1.5-1.5,3-3.2,4.5-4.9l19,4.4,6-14.6-16.6-10.4Z"/></svg>