<svg xmlns="http://www.w3.org/2000/svg" viewBox="0 0 150 150">
  <defs>
    <style>
      .cls-1 {
        fill: none;
        <!-- stroke: #000; -->
        stroke-miterlimit: 3;
        <!-- stroke-width: 5px; -->
      }
    </style>
  </defs>
    <path class="cls-1" d="M90.3 30A30 30 0 0 1 114 53.7M90.3 6A54 54 0 0 1 138 53.64m-6 47.88v18a12 12 0 0 1-13.08 12 118.74 118.74 0 0 1-51.78-18.42 117 117 0 0 1-36-36 118.74 118.74 0 0 1-18.42-51.96A12 12 0 0 1 24.66 12h18a12 12 0 0 1 12 10.32 77.04 77.04 0 0 0 4.2 16.86 12 12 0 0 1-2.7 12.66L48.54 59.46a96 96 0 0 0 36 36l7.62-7.62a12 12 0 0 1 12.66-2.7 77.04 77.04 0 0 0 16.86 4.2A12 12 0 0 1 132 93.52z"></path>
</svg>
